# xmcd
#
# Track frame offsets:
#	150
#	27712
#	56113
#	87684
#	115622
#	151392
#	182690
#	203323
#	236540
#	269565
#	297628
#
# Disc length: 4399 seconds
#
# Revision: 0
# Processed by: cddbd v1.5.2PL0 Copyright (c) Steve Scherf et al.
# Submitted via: EasyCDDAExtractor 15.2.5.1
#
DISCID=a1112d0b
DTITLE=Various Artist - Purple Music Discology
DYEAR=2012
DGENRE=House
TTITLE0=Soneec, Lauer and Canard - Sun Worshippers (B-Sensual vs. Noend Remix)
TTITLE1=Vincent Valler - Love's Theme
TTITLE2=Anthony Fennel - I need Love
TTITLE3=Frank Boissy feat. Michael Watford - Back to Roots
TTITLE4=Jamie Lewis - Give
TTITLE5=Nightrhymes - Music and Harmony
TTITLE6=Tracks - Long Train Running
TTITLE7=Anthony Romeno - You say you love me
TTITLE8=Christian Hornbostel and Alfred Azzetto - 84 King Street
TTITLE9=Manyus vs. Four Funk - Around the World
TTITLE10=The Collective vs. Peyton - Promised Land (DJ Meme Purple Mix)
EXTD=
EXTT0=
EXTT1=
EXTT2=
EXTT3=
EXTT4=
EXTT5=
EXTT6=
EXTT7=
EXTT8=
EXTT9=
EXTT10=
PLAYORDER=
